<?xml version="1.0" standalone="no"?>
<!DOCTYPE svg PUBLIC "-//W3C//DTD SVG 20010904//EN"
 "http://www.w3.org/TR/2001/REC-SVG-20010904/DTD/svg10.dtd">
<svg version="1.0" xmlns="http://www.w3.org/2000/svg"
 width="500.000000pt" height="500.000000pt" viewBox="0 0 500.000000 500.000000"
 preserveAspectRatio="xMidYMid meet">
<metadata>
Created by potrace 1.14, written by Peter Selinger 2001-2017
</metadata>
<g transform="translate(0.000000,500.000000) scale(0.100000,-0.100000)"
fill="#000000" stroke="none">
<path d="M4188 4764 c-2 -1 -28 -5 -58 -9 -73 -9 -200 -71 -271 -132 -61 -52
-126 -140 -158 -213 -58 -132 -60 -311 -5 -450 38 -97 136 -221 212 -268 l29
-17 -48 -100 c-27 -55 -80 -165 -118 -245 -63 -132 -107 -222 -251 -525 -26
-55 -78 -163 -115 -240 -37 -77 -91 -189 -120 -250 -29 -60 -82 -172 -119
-248 -36 -75 -66 -142 -66 -147 0 -14 -30 -12 -81 5 -73 25 -191 42 -280 40
-211 -5 -345 -56 -561 -214 -12 -9 -22 -11 -26 -5 -4 6 -45 44 -92 84 -47 41
-87 77 -90 80 -3 3 -41 36 -85 75 -44 38 -85 75 -91 80 -11 11 -111 98 -153
134 -12 11 -55 49 -95 84 -81 73 -261 232 -440 388 l-31 27 22 43 c52 106 62
227 30 340 -31 106 -128 223 -228 275 -45 23 -140 44 -199 45 -94 0 -159 -18
-240 -67 -239 -143 -288 -473 -101 -685 124 -141 343 -192 510 -118 24 10 48
19 53 19 8 0 220 -180 248 -210 3 -3 95 -84 205 -180 110 -96 202 -177 205
-180 3 -3 61 -55 130 -115 69 -59 159 -138 200 -176 41 -37 86 -76 99 -86 l24
-19 -27 -42 c-77 -122 -119 -274 -119 -432 -1 -127 2 -155 27 -249 72 -272
293 -504 566 -595 41 -14 89 -27 105 -31 56 -11 240 -14 300 -4 348 56 628
310 716 647 37 142 30 341 -17 486 -18 57 -91 204 -111 224 -7 7 -13 17 -13
21 0 11 -138 152 -169 173 -24 17 -24 17 -6 55 10 21 47 99 83 173 35 74 83
176 107 225 54 113 135 284 210 440 32 66 79 166 106 223 208 436 290 608 312
651 l23 45 99 -2 c177 -5 319 51 440 172 234 236 229 612 -13 842 -62 60 -183
127 -258 144 -43 10 -200 21 -206 14z m222 -241 c240 -113 296 -428 108 -616
-208 -208 -568 -111 -642 173 -40 154 22 322 151 411 74 51 137 69 233 66 71
-2 96 -8 150 -34z m-3586 -1367 c129 -76 156 -261 55 -371 -124 -134 -333
-101 -408 65 -64 141 30 318 179 337 19 3 36 6 38 7 9 10 97 -15 136 -38z
m2147 -1431 c191 -64 351 -224 413 -412 9 -28 19 -64 22 -80 2 -15 7 -35 10
-43 9 -26 5 -174 -6 -228 -25 -112 -92 -241 -169 -325 -71 -76 -181 -143 -298
-181 -69 -22 -92 -25 -203 -22 -103 2 -137 7 -195 28 -213 77 -352 219 -426
433 -20 60 -24 89 -24 205 0 122 3 142 27 208 93 253 306 423 562 449 28 3 52
6 53 7 10 8 178 -20 234 -39z"/>
</g>
</svg>
